<svg width="94" height="46" viewBox="0 0 94 46" fill="none" xmlns="http://www.w3.org/2000/svg">
<path d="M28.9878 14.7931C28.9878 22.6885 22.609 29.0862 14.7439 29.0862C6.87878 29.0862 0.5 22.6885 0.5 14.7931C0.5 6.89767 6.87878 0.5 14.7439 0.5C22.609 0.5 28.9878 6.89767 28.9878 14.7931Z" stroke="white" stroke-opacity="0.24"/>
<path fill-rule="evenodd" clip-rule="evenodd" d="M14.5001 1.00213C14.5812 1.00071 14.6625 1 14.744 1C22.3314 1 28.4879 7.17224 28.4879 14.7931C28.4879 22.414 22.3314 28.5862 14.744 28.5862C9.26429 28.5862 4.53094 25.3669 2.32403 20.7075L1.41846 21.132C3.78457 26.1304 8.86204 29.5862 14.744 29.5862C22.8868 29.5862 29.4879 22.9631 29.4879 14.7931C29.4879 6.6231 22.8868 0 14.744 0C14.6625 0 14.5812 0.000662767 14.5001 0.00198322V1.00213ZM14.4472 0.00293695C14.0904 0.0100055 13.7367 0.0297932 13.3865 0.0618669L14.4472 0.00293695Z" fill="white"/>
<path d="M60.9878 14.7931C60.9878 22.6885 54.609 29.0862 46.7439 29.0862C38.8788 29.0862 32.5 22.6885 32.5 14.7931C32.5 6.89767 38.8788 0.5 46.7439 0.5C54.609 0.5 60.9878 6.89767 60.9878 14.7931Z" stroke="white" stroke-opacity="0.24"/>
<path fill-rule="evenodd" clip-rule="evenodd" d="M46.5001 1.00213C46.5812 1.00071 46.6625 1 46.744 1C54.3314 1 60.4879 7.17224 60.4879 14.7931C60.4879 22.414 54.3314 28.5862 46.744 28.5862C41.2643 28.5862 36.5309 25.3669 34.324 20.7075L33.4185 21.132C35.7846 26.1304 40.862 29.5862 46.744 29.5862C54.8868 29.5862 61.4879 22.9631 61.4879 14.7931C61.4879 6.6231 54.8868 0 46.744 0C46.6625 0 46.5812 0.000662767 46.5001 0.00198322V1.00213ZM46.4472 0.00293695C46.0904 0.0100055 45.7367 0.0297932 45.3865 0.0618669L46.4472 0.00293695Z" fill="white"/>
<path d="M92.9878 14.7931C92.9878 22.6885 86.609 29.0862 78.7439 29.0862C70.8788 29.0862 64.5 22.6885 64.5 14.7931C64.5 6.89767 70.8788 0.5 78.7439 0.5C86.609 0.5 92.9878 6.89767 92.9878 14.7931Z" stroke="white" stroke-opacity="0.24"/>
<path fill-rule="evenodd" clip-rule="evenodd" d="M78.5001 1.00213C78.5812 1.00071 78.6625 1 78.744 1C86.3314 1 92.4879 7.17224 92.4879 14.7931C92.4879 22.414 86.3314 28.5862 78.744 28.5862C73.2643 28.5862 68.5309 25.3669 66.324 20.7075L65.4185 21.132C67.7846 26.1304 72.862 29.5862 78.744 29.5862C86.8868 29.5862 93.4879 22.9631 93.4879 14.7931C93.4879 6.6231 86.8868 0 78.744 0C78.6625 0 78.5812 0.000662767 78.5001 0.00198322V1.00213ZM78.4472 0.00293695C78.0904 0.0100055 77.7367 0.0297932 77.3865 0.0618669L78.4472 0.00293695Z" fill="white"/>
<path d="M76.9878 30.7931C76.9878 38.6885 70.609 45.0862 62.7439 45.0862C54.8788 45.0862 48.5 38.6885 48.5 30.7931C48.5 22.8977 54.8788 16.5 62.7439 16.5C70.609 16.5 76.9878 22.8977 76.9878 30.7931Z" stroke="white" stroke-opacity="0.24"/>
<path fill-rule="evenodd" clip-rule="evenodd" d="M62.5001 17.0021C62.5812 17.0007 62.6625 17 62.744 17C70.3314 17 76.4879 23.1722 76.4879 30.7931C76.4879 38.414 70.3314 44.5862 62.744 44.5862C57.2643 44.5862 52.5309 41.3669 50.324 36.7075L49.4185 37.132C51.7846 42.1304 56.862 45.5862 62.744 45.5862C70.8868 45.5862 77.4879 38.9631 77.4879 30.7931C77.4879 22.6231 70.8868 16 62.744 16C62.6625 16 62.5812 16.0007 62.5001 16.002V17.0021ZM62.4472 16.0029C62.0904 16.01 61.7367 16.0298 61.3865 16.0619L62.4472 16.0029Z" fill="white"/>
<path d="M44.9878 30.7931C44.9878 38.6885 38.609 45.0862 30.7439 45.0862C22.8788 45.0862 16.5 38.6885 16.5 30.7931C16.5 22.8977 22.8788 16.5 30.7439 16.5C38.609 16.5 44.9878 22.8977 44.9878 30.7931Z" stroke="white" stroke-opacity="0.24"/>
<path fill-rule="evenodd" clip-rule="evenodd" d="M30.5001 17.0021C30.5812 17.0007 30.6625 17 30.744 17C38.3314 17 44.4879 23.1722 44.4879 30.7931C44.4879 38.414 38.3314 44.5862 30.744 44.5862C25.2643 44.5862 20.5309 41.3669 18.324 36.7075L17.4185 37.132C19.7846 42.1304 24.862 45.5862 30.744 45.5862C38.8868 45.5862 45.4879 38.9631 45.4879 30.7931C45.4879 22.6231 38.8868 16 30.744 16C30.6625 16 30.5812 16.0007 30.5001 16.002V17.0021ZM30.4472 16.0029C30.0904 16.01 29.7367 16.0298 29.3865 16.0619L30.4472 16.0029Z" fill="white"/>
</svg>
